<svg width="505" height="123" viewBox="0 0 505 123" fill="none" xmlns="http://www.w3.org/2000/svg">
<g clip-path="url(#clip0_4062_29891)">
<path d="M161.307 87.3083C161.307 88.4761 161.241 89.6505 161.048 90.7984C160.562 93.7245 158.335 95.3435 155.449 94.6667C153.647 94.242 151.852 93.5719 150.229 92.6894C145.096 89.8761 140.022 86.9368 134.975 83.9708C133.672 83.2012 132.84 83.2742 131.73 84.3955C123.824 92.3776 115.877 100.326 107.871 108.216C101.056 114.937 92.7437 118.606 83.2415 119.157C70.1418 119.913 59.0171 115.348 50.652 105.23C41.3293 93.9435 39.3943 81.0713 43.9891 67.237C45.9774 61.2521 49.6014 56.2957 54.0632 51.89C60.3271 45.706 66.5644 39.4955 72.8017 33.2917C80.196 25.9266 87.4905 18.4621 94.9979 11.2099C105.365 1.21075 117.806 -2.06701 131.703 1.24392C149.258 5.42406 160.995 20.4991 161.188 38.487C161.366 54.7589 161.346 71.0357 161.307 87.3083ZM91.6 78.1386C91.6 73.2286 87.7565 69.5394 82.6364 69.5129C78.0482 69.493 74.1715 73.5139 74.2047 78.2646C74.238 82.9358 78.108 86.8505 82.6763 86.8505C87.7432 86.8505 91.6 83.0817 91.5933 78.1452L91.6 78.1386ZM128.744 41.1543C128.784 36.3903 125.041 32.5552 120.266 32.4755C115.452 32.3959 111.442 36.2111 111.376 40.9287C111.303 45.7923 115.186 49.7733 120.027 49.8132C124.755 49.853 128.711 45.925 128.751 41.1543H128.744ZM110.172 59.6066C110.185 54.8824 106.342 51.034 101.594 51.0075C96.6935 50.9809 92.7769 54.8426 92.7902 59.6796C92.8102 64.4503 96.7201 68.3119 101.521 68.3053C106.262 68.2987 110.159 64.3773 110.172 59.6V59.6066Z" fill="#EC7A34"/>
<path d="M35.5852 89.964C34.6543 89.1213 33.6701 88.2986 32.7525 87.3962C27.2267 81.9421 21.7142 76.4748 16.2017 71.0008C11.5205 66.3562 6.67294 61.8443 3.90672 55.6537C-2.04463 42.317 -1.27993 29.4051 6.71283 17.1765C12.8171 7.83422 21.6677 2.25407 32.666 0.555473C44.6419 -1.29573 55.5073 1.6171 64.6703 9.7186C68.4473 13.0627 71.8785 16.7917 75.4626 20.3547C75.5889 20.4808 75.6687 20.66 75.835 20.9187C75.4293 21.3566 75.0437 21.8145 74.6247 22.2325C66.7184 30.0818 58.8121 37.9312 50.8925 45.7607C46.9227 49.6887 43.1723 53.7759 40.5325 58.7656C36.822 65.7656 34.8139 73.1705 35.0333 81.1127C35.1131 84.0388 35.3924 86.9583 35.5918 89.964H35.5852Z" fill="url(#paint0_linear_4062_29891)"/>
</g>
<path d="M225.491 30.401H204.834V84H192.367V30.401H171.71V19.39H225.491V30.401ZM256.188 46.872C252.487 46.872 249.181 47.6 246.269 49.056C243.357 50.4513 241.264 52.4837 239.99 55.153V84H227.796V36.316H238.989V46.508C240.688 43.232 242.841 40.6537 245.45 38.773C248.059 36.8923 250.819 35.861 253.731 35.679C254.398 35.679 254.914 35.679 255.278 35.679C255.642 35.679 255.945 35.7093 256.188 35.77V46.872ZM262.533 66.164V36.316H274.727V63.525C274.727 67.165 275.394 69.9253 276.729 71.806C278.063 73.626 280.035 74.536 282.644 74.536C284.221 74.536 285.768 74.2327 287.285 73.626C288.862 72.9587 290.288 71.988 291.562 70.714C292.896 69.44 294.019 67.8323 294.929 65.891V36.316H307.123V70.35C307.123 71.624 307.335 72.534 307.76 73.08C308.245 73.626 309.003 73.9597 310.035 74.081V84C308.821 84.182 307.79 84.3033 306.941 84.364C306.152 84.4853 305.424 84.546 304.757 84.546C302.573 84.546 300.783 84.0607 299.388 83.09C298.053 82.0587 297.264 80.6633 297.022 78.904L296.749 75.082C294.625 78.2973 291.895 80.7543 288.559 82.453C285.222 84.091 281.552 84.91 277.548 84.91C272.634 84.91 268.903 83.3327 266.355 80.178C263.807 76.9627 262.533 72.2913 262.533 66.164ZM319.149 17.57H331.343V68.712C331.343 70.896 331.707 72.3823 332.435 73.171C333.163 73.899 334.164 74.263 335.438 74.263C336.409 74.263 337.41 74.1417 338.441 73.899C339.473 73.6563 340.383 73.353 341.171 72.989L342.809 82.271C341.171 83.0597 339.26 83.6663 337.076 84.091C334.892 84.5157 332.921 84.728 331.161 84.728C327.339 84.728 324.367 83.727 322.243 81.725C320.181 79.6623 319.149 76.7503 319.149 72.989V17.57ZM370.144 84.91C366.262 84.91 362.773 84.273 359.679 82.999C356.585 81.6643 353.946 79.8443 351.762 77.539C349.639 75.2337 348.001 72.5947 346.848 69.622C345.696 66.6493 345.119 63.525 345.119 60.249C345.119 56.9123 345.696 53.7577 346.848 50.785C348.001 47.8123 349.639 45.1733 351.762 42.868C353.946 40.5627 356.585 38.773 359.679 37.499C362.773 36.1643 366.262 35.497 370.144 35.497C374.027 35.497 377.485 36.1643 380.518 37.499C383.612 38.773 386.251 40.5627 388.435 42.868C390.619 45.1733 392.257 47.8123 393.349 50.785C394.502 53.7577 395.078 56.9123 395.078 60.249C395.078 63.525 394.502 66.6493 393.349 69.622C392.257 72.5947 390.619 75.2337 388.435 77.539C386.312 79.8443 383.703 81.6643 380.609 82.999C377.515 84.273 374.027 84.91 370.144 84.91ZM357.677 60.249C357.677 63.0397 358.223 65.527 359.315 67.711C360.407 69.8343 361.894 71.5027 363.774 72.716C365.655 73.9293 367.778 74.536 370.144 74.536C372.45 74.536 374.543 73.9293 376.423 72.716C378.304 71.442 379.79 69.7433 380.882 67.62C382.035 65.436 382.611 62.9487 382.611 60.158C382.611 57.428 382.035 54.971 380.882 52.787C379.79 50.603 378.304 48.9043 376.423 47.691C374.543 46.4777 372.45 45.871 370.144 45.871C367.778 45.871 365.655 46.508 363.774 47.782C361.894 48.9953 360.407 50.694 359.315 52.878C358.223 55.0013 357.677 57.4583 357.677 60.249ZM441.072 19.39H453.812L477.563 84H464.641L458.635 67.893H436.067L430.152 84H417.23L441.072 19.39ZM456.36 59.066L447.442 32.403L438.16 59.066H456.36ZM484.65 84V19.39H497.208V84H484.65Z" fill="#343434"/>
<path d="M251.315 122V100.7H259.055C261.375 100.7 263.315 101.18 264.875 102.14C266.435 103.08 267.605 104.36 268.385 105.98C269.165 107.58 269.555 109.36 269.555 111.32C269.555 113.48 269.125 115.36 268.265 116.96C267.405 118.56 266.185 119.8 264.605 120.68C263.045 121.56 261.195 122 259.055 122H251.315ZM265.385 111.32C265.385 109.94 265.135 108.73 264.635 107.69C264.135 106.63 263.415 105.81 262.475 105.23C261.535 104.63 260.395 104.33 259.055 104.33H255.455V118.37H259.055C260.415 118.37 261.565 118.07 262.505 117.47C263.445 116.85 264.155 116.01 264.635 114.95C265.135 113.87 265.385 112.66 265.385 111.32ZM271.114 117.35C271.114 116.33 271.394 115.44 271.954 114.68C272.534 113.9 273.334 113.3 274.354 112.88C275.374 112.46 276.544 112.25 277.864 112.25C278.524 112.25 279.194 112.3 279.874 112.4C280.554 112.5 281.144 112.66 281.644 112.88V112.04C281.644 111.04 281.344 110.27 280.744 109.73C280.164 109.19 279.294 108.92 278.134 108.92C277.274 108.92 276.454 109.07 275.674 109.37C274.894 109.67 274.074 110.11 273.214 110.69L271.924 108.05C272.964 107.37 274.024 106.86 275.104 106.52C276.204 106.18 277.354 106.01 278.554 106.01C280.794 106.01 282.534 106.57 283.774 107.69C285.034 108.81 285.664 110.41 285.664 112.49V117.5C285.664 117.92 285.734 118.22 285.874 118.4C286.034 118.58 286.284 118.69 286.624 118.73V122C286.264 122.06 285.934 122.11 285.634 122.15C285.354 122.19 285.114 122.21 284.914 122.21C284.114 122.21 283.504 122.03 283.084 121.67C282.684 121.31 282.434 120.87 282.334 120.35L282.244 119.54C281.564 120.42 280.714 121.1 279.694 121.58C278.674 122.06 277.634 122.3 276.574 122.3C275.534 122.3 274.594 122.09 273.754 121.67C272.934 121.23 272.284 120.64 271.804 119.9C271.344 119.14 271.114 118.29 271.114 117.35ZM280.894 118.16C281.114 117.92 281.294 117.68 281.434 117.44C281.574 117.2 281.644 116.98 281.644 116.78V115.19C281.164 114.99 280.644 114.84 280.084 114.74C279.524 114.62 278.994 114.56 278.494 114.56C277.454 114.56 276.594 114.79 275.914 115.25C275.254 115.69 274.924 116.28 274.924 117.02C274.924 117.42 275.034 117.8 275.254 118.16C275.474 118.52 275.794 118.81 276.214 119.03C276.634 119.25 277.134 119.36 277.714 119.36C278.314 119.36 278.904 119.25 279.484 119.03C280.064 118.79 280.534 118.5 280.894 118.16ZM298.694 121.19C298.354 121.33 297.944 121.49 297.464 121.67C296.984 121.85 296.464 121.99 295.904 122.09C295.364 122.21 294.814 122.27 294.254 122.27C293.514 122.27 292.834 122.14 292.214 121.88C291.594 121.62 291.094 121.21 290.714 120.65C290.354 120.07 290.174 119.32 290.174 118.4V109.37H288.104V106.28H290.174V101.18H294.194V106.28H297.494V109.37H294.194V117.05C294.214 117.59 294.364 117.98 294.644 118.22C294.924 118.46 295.274 118.58 295.694 118.58C296.114 118.58 296.524 118.51 296.924 118.37C297.324 118.23 297.644 118.11 297.884 118.01L298.694 121.19ZM307.902 122.3C306.642 122.3 305.502 122.09 304.482 121.67C303.462 121.23 302.592 120.64 301.872 119.9C301.152 119.14 300.592 118.28 300.192 117.32C299.812 116.34 299.622 115.31 299.622 114.23C299.622 112.73 299.952 111.36 300.612 110.12C301.292 108.88 302.252 107.89 303.492 107.15C304.752 106.39 306.232 106.01 307.932 106.01C309.652 106.01 311.122 106.39 312.342 107.15C313.562 107.89 314.492 108.88 315.132 110.12C315.792 111.34 316.122 112.66 316.122 114.08C316.122 114.32 316.112 114.57 316.092 114.83C316.072 115.07 316.052 115.27 316.032 115.43H303.882C303.962 116.23 304.192 116.93 304.572 117.53C304.972 118.13 305.472 118.59 306.072 118.91C306.692 119.21 307.352 119.36 308.052 119.36C308.852 119.36 309.602 119.17 310.302 118.79C311.022 118.39 311.512 117.87 311.772 117.23L315.222 118.19C314.842 118.99 314.292 119.7 313.572 120.32C312.872 120.94 312.042 121.43 311.082 121.79C310.122 122.13 309.062 122.3 307.902 122.3ZM303.792 112.88H312.012C311.932 112.08 311.702 111.39 311.322 110.81C310.962 110.21 310.482 109.75 309.882 109.43C309.282 109.09 308.612 108.92 307.872 108.92C307.152 108.92 306.492 109.09 305.892 109.43C305.312 109.75 304.832 110.21 304.452 110.81C304.092 111.39 303.872 112.08 303.792 112.88ZM338.858 106.28C338.718 106.14 338.458 105.95 338.078 105.71C337.718 105.47 337.268 105.24 336.728 105.02C336.208 104.8 335.638 104.61 335.018 104.45C334.398 104.27 333.768 104.18 333.128 104.18C332.008 104.18 331.158 104.39 330.578 104.81C330.018 105.23 329.738 105.82 329.738 106.58C329.738 107.16 329.918 107.62 330.278 107.96C330.638 108.3 331.178 108.59 331.898 108.83C332.618 109.07 333.518 109.33 334.598 109.61C335.998 109.95 337.208 110.37 338.228 110.87C339.268 111.35 340.058 111.99 340.598 112.79C341.158 113.57 341.438 114.61 341.438 115.91C341.438 117.05 341.228 118.03 340.808 118.85C340.388 119.65 339.808 120.3 339.068 120.8C338.328 121.3 337.488 121.67 336.548 121.91C335.608 122.13 334.608 122.24 333.548 122.24C332.488 122.24 331.428 122.13 330.368 121.91C329.308 121.69 328.288 121.38 327.308 120.98C326.328 120.56 325.428 120.06 324.608 119.48L326.438 115.91C326.618 116.09 326.938 116.33 327.398 116.63C327.858 116.91 328.418 117.2 329.078 117.5C329.738 117.78 330.458 118.02 331.238 118.22C332.018 118.42 332.808 118.52 333.608 118.52C334.728 118.52 335.578 118.33 336.158 117.95C336.738 117.57 337.028 117.03 337.028 116.33C337.028 115.69 336.798 115.19 336.338 114.83C335.878 114.47 335.238 114.16 334.418 113.9C333.598 113.62 332.628 113.32 331.508 113C330.168 112.62 329.048 112.2 328.148 111.74C327.248 111.26 326.578 110.66 326.138 109.94C325.698 109.22 325.478 108.32 325.478 107.24C325.478 105.78 325.818 104.56 326.498 103.58C327.198 102.58 328.138 101.83 329.318 101.33C330.498 100.81 331.808 100.55 333.248 100.55C334.248 100.55 335.188 100.66 336.068 100.88C336.968 101.1 337.808 101.39 338.588 101.75C339.368 102.11 340.068 102.5 340.688 102.92L338.858 106.28ZM368.509 122H364.489V113.18C364.489 111.94 364.269 111.03 363.829 110.45C363.409 109.85 362.819 109.55 362.059 109.55C361.279 109.55 360.529 109.86 359.809 110.48C359.109 111.08 358.609 111.87 358.309 112.85V122H354.289V113.18C354.289 111.92 354.069 111 353.629 110.42C353.209 109.84 352.619 109.55 351.859 109.55C351.079 109.55 350.329 109.85 349.609 110.45C348.909 111.05 348.409 111.84 348.109 112.82V122H344.089V106.28H347.719V109.19C348.319 108.17 349.119 107.39 350.119 106.85C351.119 106.29 352.269 106.01 353.569 106.01C354.869 106.01 355.879 106.33 356.599 106.97C357.339 107.61 357.809 108.4 358.009 109.34C358.649 108.26 359.459 107.44 360.439 106.88C361.439 106.3 362.559 106.01 363.799 106.01C364.779 106.01 365.569 106.19 366.169 106.55C366.789 106.89 367.269 107.36 367.609 107.96C367.949 108.54 368.179 109.2 368.299 109.94C368.439 110.68 368.509 111.43 368.509 112.19V122ZM370.929 117.35C370.929 116.33 371.209 115.44 371.769 114.68C372.349 113.9 373.149 113.3 374.169 112.88C375.189 112.46 376.359 112.25 377.679 112.25C378.339 112.25 379.009 112.3 379.689 112.4C380.369 112.5 380.959 112.66 381.459 112.88V112.04C381.459 111.04 381.159 110.27 380.559 109.73C379.979 109.19 379.109 108.92 377.949 108.92C377.089 108.92 376.269 109.07 375.489 109.37C374.709 109.67 373.889 110.11 373.029 110.69L371.739 108.05C372.779 107.37 373.839 106.86 374.919 106.52C376.019 106.18 377.169 106.01 378.369 106.01C380.609 106.01 382.349 106.57 383.589 107.69C384.849 108.81 385.479 110.41 385.479 112.49V117.5C385.479 117.92 385.549 118.22 385.689 118.4C385.849 118.58 386.099 118.69 386.439 118.73V122C386.079 122.06 385.749 122.11 385.449 122.15C385.169 122.19 384.929 122.21 384.729 122.21C383.929 122.21 383.319 122.03 382.899 121.67C382.499 121.31 382.249 120.87 382.149 120.35L382.059 119.54C381.379 120.42 380.529 121.1 379.509 121.58C378.489 122.06 377.449 122.3 376.389 122.3C375.349 122.3 374.409 122.09 373.569 121.67C372.749 121.23 372.099 120.64 371.619 119.9C371.159 119.14 370.929 118.29 370.929 117.35ZM380.709 118.16C380.929 117.92 381.109 117.68 381.249 117.44C381.389 117.2 381.459 116.98 381.459 116.78V115.19C380.979 114.99 380.459 114.84 379.899 114.74C379.339 114.62 378.809 114.56 378.309 114.56C377.269 114.56 376.409 114.79 375.729 115.25C375.069 115.69 374.739 116.28 374.739 117.02C374.739 117.42 374.849 117.8 375.069 118.16C375.289 118.52 375.609 118.81 376.029 119.03C376.449 119.25 376.949 119.36 377.529 119.36C378.129 119.36 378.719 119.25 379.299 119.03C379.879 118.79 380.349 118.5 380.709 118.16ZM398.595 109.76C397.375 109.76 396.285 110 395.325 110.48C394.365 110.94 393.675 111.61 393.255 112.49V122H389.235V106.28H392.925V109.64C393.485 108.56 394.195 107.71 395.055 107.09C395.915 106.47 396.825 106.13 397.785 106.07C398.005 106.07 398.175 106.07 398.295 106.07C398.415 106.07 398.515 106.08 398.595 106.1V109.76ZM410.257 121.19C409.917 121.33 409.507 121.49 409.027 121.67C408.547 121.85 408.027 121.99 407.467 122.09C406.927 122.21 406.377 122.27 405.817 122.27C405.077 122.27 404.397 122.14 403.777 121.88C403.157 121.62 402.657 121.21 402.277 120.65C401.917 120.07 401.737 119.32 401.737 118.4V109.37H399.667V106.28H401.737V101.18H405.757V106.28H409.057V109.37H405.757V117.05C405.777 117.59 405.927 117.98 406.207 118.22C406.487 118.46 406.837 118.58 407.257 118.58C407.677 118.58 408.087 118.51 408.487 118.37C408.887 118.23 409.207 118.11 409.447 118.01L410.257 121.19ZM419.465 122.3C418.205 122.3 417.065 122.09 416.045 121.67C415.025 121.23 414.155 120.64 413.435 119.9C412.715 119.14 412.155 118.28 411.755 117.32C411.375 116.34 411.185 115.31 411.185 114.23C411.185 112.73 411.515 111.36 412.175 110.12C412.855 108.88 413.815 107.89 415.055 107.15C416.315 106.39 417.795 106.01 419.495 106.01C421.215 106.01 422.685 106.39 423.905 107.15C425.125 107.89 426.055 108.88 426.695 110.12C427.355 111.34 427.685 112.66 427.685 114.08C427.685 114.32 427.675 114.57 427.655 114.83C427.635 115.07 427.615 115.27 427.595 115.43H415.445C415.525 116.23 415.755 116.93 416.135 117.53C416.535 118.13 417.035 118.59 417.635 118.91C418.255 119.21 418.915 119.36 419.615 119.36C420.415 119.36 421.165 119.17 421.865 118.79C422.585 118.39 423.075 117.87 423.335 117.23L426.785 118.19C426.405 118.99 425.855 119.7 425.135 120.32C424.435 120.94 423.605 121.43 422.645 121.79C421.685 122.13 420.625 122.3 419.465 122.3ZM415.355 112.88H423.575C423.495 112.08 423.265 111.39 422.885 110.81C422.525 110.21 422.045 109.75 421.445 109.43C420.845 109.09 420.175 108.92 419.435 108.92C418.715 108.92 418.055 109.09 417.455 109.43C416.875 109.75 416.395 110.21 416.015 110.81C415.655 111.39 415.435 112.08 415.355 112.88ZM439.494 109.76C438.274 109.76 437.184 110 436.224 110.48C435.264 110.94 434.574 111.61 434.154 112.49V122H430.134V106.28H433.824V109.64C434.384 108.56 435.094 107.71 435.954 107.09C436.814 106.47 437.724 106.13 438.684 106.07C438.904 106.07 439.074 106.07 439.194 106.07C439.314 106.07 439.414 106.08 439.494 106.1V109.76Z" fill="#5F5F5F"/>
<defs>
<linearGradient id="paint0_linear_4062_29891" x1="71.4218" y1="0.0190409" x2="-17.5309" y2="58.8046" gradientUnits="userSpaceOnUse">
<stop offset="0.106775" stop-color="#FFA235"/>
<stop offset="1" stop-color="#D06F39"/>
</linearGradient>
<clipPath id="clip0_4062_29891">
<rect width="161.325" height="119.24" fill="white"/>
</clipPath>
</defs>
</svg>
