<svg width="546" height="21" viewBox="0 0 546 21" fill="none" xmlns="http://www.w3.org/2000/svg">
<path d="M61.175 5.99036C137.337 5.61121 213.012 4.18295 289.28 3.73362C298.234 3.68087 464.214 1.18346 447.121 2.27639C395.832 5.55574 190.192 10.2675 135.403 12.8556C105.435 14.2712 73.7657 15.7482 43.266 17.084C34.7566 17.4567 26.1535 17.8073 17.5806 18.1649C12.4859 18.3774 0.0381647 18.2859 2.2637 18.7944C4.58198 19.3241 13.7031 18.6755 19.348 18.5687C41.7557 18.1448 64.0683 17.671 86.3891 17.2028C173.475 15.3761 260.425 13.484 347.484 11.6441C408.877 10.3466 592.308 6.17733 531.994 7.91453" stroke="#EC7A34" stroke-width="3" stroke-linecap="round"/>
</svg>
