<svg width="157" height="41" viewBox="0 0 157 41" fill="none" xmlns="http://www.w3.org/2000/svg">
<path d="M148.649 10.634C142.493 8.01837 136.011 6.69157 129.323 5.44297C106.87 1.25073 84.7563 0.308396 62.3981 2.57605C47.1018 4.12747 31.209 6.71152 18.0537 13.0648C13.3176 15.3521 4.71166 20.9952 2.09644 25.3984C-0.0687537 29.044 0.783837 33.5309 5.86693 35.7974C9.60911 37.4659 13.9002 38.122 18.0398 38.655C33.0007 40.5814 49.0432 39.8404 63.6736 38.8377C83.2261 37.4977 100.112 35.5717 118.824 31.4886C129.223 29.2195 143.182 25.9149 151.451 19.5723C153.482 18.0145 155.751 15.9053 155.459 13.5598C154.826 8.46488 140.633 5.42767 138.188 4.91488C121.484 1.41211 104.443 1.78936 87.6353 1.34171" stroke="#EC7A34" stroke-width="1.79716" stroke-linecap="round"/>
</svg>
